# xmcd CD database file
#
# Track frame offsets:
#	150
#	14422
#	35485
#	55867
#	70555
#	84325
#	107922
#	125967
#	143587
#	154362
#	168232
#
# Disc length: 2416 seconds
#
# Revision: 2
# Processed by: cddbd v1.5.2PL0 Copyright (c) Steve Scherf et al.
# Submitted via: CDex 1.70beta2
#
DISCID=90096e0b
DTITLE=Ivan Hlas - Tanec pri svickach
DYEAR=1995
DGENRE=Rock
TTITLE0=Podivna vec
TTITLE1=Nadrazni blues
TTITLE2=Tanec pri svickach
TTITLE3=Krasna a velika
TTITLE4=Strasak
TTITLE5=Svet je nevinnej
TTITLE6=Takova kouzelna noc
TTITLE7=Dej mi jen par minut
TTITLE8=My si muzem vsechno dat
TTITLE9=Aranka umi hula hop
TTITLE10=Franceska
EXTD=YEAR: 1995
EXTT0=
EXTT1=
EXTT2=
EXTT3=
EXTT4=
EXTT5=
EXTT6=
EXTT7=
EXTT8=
EXTT9=
EXTT10=
PLAYORDER=
